<?xml version="1.0" encoding="UTF-8" standalone="no"?>
<!-- Created with Inkscape (http://www.inkscape.org/) -->

<svg
   width="1023.9999"
   height="1023.9999"
   viewBox="0 0 270.93333 270.93333"
   version="1.1"
   id="svg1"
   inkscape:version="1.4.2 (ebf0e940, 2025-05-08)"
   sodipodi:docname="taskosaur-inverted-logo.svg"
   inkscape:export-filename="taskosaur-inverted-logo.png"
   inkscape:export-xdpi="90"
   inkscape:export-ydpi="90"
   xmlns:inkscape="http://www.inkscape.org/namespaces/inkscape"
   xmlns:sodipodi="http://sodipodi.sourceforge.net/DTD/sodipodi-0.dtd"
   xmlns="http://www.w3.org/2000/svg"
   xmlns:svg="http://www.w3.org/2000/svg">
  <sodipodi:namedview
     id="namedview1"
     pagecolor="#ffffff"
     bordercolor="#111111"
     borderopacity="1"
     inkscape:showpageshadow="0"
     inkscape:pageopacity="0"
     inkscape:pagecheckerboard="1"
     inkscape:deskcolor="#d1d1d1"
     inkscape:document-units="mm"
     showguides="true"
     inkscape:zoom="0.68539682"
     inkscape:cx="751.38954"
     inkscape:cy="755.03706"
     inkscape:window-width="2048"
     inkscape:window-height="1256"
     inkscape:window-x="0"
     inkscape:window-y="42"
     inkscape:window-maximized="1"
     inkscape:current-layer="layer1"
     showgrid="false">
    <sodipodi:guide
       position="-69.392872,282.25086"
       orientation="0,-1"
       id="guide1"
       inkscape:locked="false" />
    <sodipodi:guide
       position="-53.287996,132.3936"
       orientation="0,-1"
       id="guide2"
       inkscape:locked="false" />
  </sodipodi:namedview>
  <defs
     id="defs1">
    <inkscape:path-effect
       effect="fillet_chamfer"
       id="path-effect1"
       is_visible="true"
       lpeversion="1"
       nodesatellites_param="F,0,0,1,0,0,0,1 @ F,0,0,1,0,15.073973,0,1 @ F,0,0,1,0,0,0,1 @ F,0,0,1,0,11.981934,0,1 @ F,0,0,1,0,11.981934,0,1 @ F,0,0,1,0,11.981934,0,1 @ F,0,0,1,0,0,0,1 @ F,0,0,1,0,15.073973,0,1 @ F,0,0,1,0,0,0,1 @ F,0,0,1,0,14.751073,0,1 @ F,0,0,1,0,16.742724,0,1 @ F,0,0,1,0,14.751073,0,1 | F,0,0,1,0,0,0,1 @ F,0,0,1,0,12.931148,0,1 @ F,0,0,1,0,0,0,1 @ F,0,1,1,0,8.559861,0,1 @ F,0,0,1,0,10.094241,0,1 @ F,0,0,1,0,6.457053,0,1 @ F,0,0,1,0,6.457053,0,1 @ F,0,0,1,0,10.094241,0,1 @ F,0,0,1,0,8.559861,0,1"
       radius="0"
       unit="px"
       method="auto"
       mode="F"
       chamfer_steps="1"
       flexible="false"
       use_knot_distance="true"
       apply_no_radius="true"
       apply_with_radius="true"
       only_selected="false"
       hide_knots="false" />
  </defs>
  <g
     inkscape:label="Layer 1"
     inkscape:groupmode="layer"
     id="layer1"
     transform="translate(-25.991592,-50.884445)">
    <circle
       style="fill:#f9f9f9;stroke-width:3"
       id="path2"
       cx="161.45824"
       cy="186.35109"
       r="132.29167" />
    <path
       id="path1"
       style="fill:#000000;stroke-width:3;fill-opacity:1"
       d="M 161.45826 50.884445 A 135.46666 135.46666 0 0 0 25.991592 186.35111 A 135.46666 135.46666 0 0 0 161.45826 321.81778 A 135.46666 135.46666 0 0 0 296.92493 186.35111 A 135.46666 135.46666 0 0 0 161.45826 50.884445 z M 61.644713 104.2941 L 89.99492 137.81971 A 27.770084 27.770084 0 0 0 114.18518 147.49715 L 144.81173 144.18521 A 154.8237 154.8237 0 0 1 178.10324 144.18521 L 208.73083 147.49715 A 27.770413 27.770413 0 0 0 232.92108 137.81971 L 261.2718 104.2941 L 257.40847 153.05805 A 16.315473 16.315473 0 0 1 241.14383 168.08504 L 234.79797 168.08504 L 202.40046 273.0652 A 35.011091 35.011091 0 0 1 189.05967 291.39793 L 171.26541 303.88761 A 17.071064 17.071064 0 0 1 151.65059 303.88761 L 133.85684 291.39845 A 35.011587 35.011587 0 0 1 120.51605 273.0652 L 88.118549 168.08504 L 81.772683 168.08504 A 16.315473 16.315473 0 0 1 65.508043 153.05805 L 61.644713 104.2941 z M 107.08587 169.06431 L 114.75775 177.59712 A 26.274581 26.274581 0 0 0 128.85508 185.73513 L 142.24754 188.56958 A 12.454503 12.454503 0 0 1 152.12291 200.75437 L 152.12291 271.89473 A 6.457053 6.457053 0 0 0 158.5804 278.35221 L 163.91289 278.35221 A 6.457053 6.457053 0 0 0 170.37038 271.89473 L 170.37038 200.75437 A 12.454501 12.454501 0 0 1 180.24574 188.56958 L 193.63821 185.73513 A 26.274556 26.274556 0 0 0 207.73554 177.59712 L 215.40742 169.06431 L 174.31432 173.49763 A 120.31828 120.31828 0 0 1 148.60013 173.50848 L 107.08587 169.06431 z " />
  </g>
</svg>
